# xmcd
#
# Track frame offsets:
#	150
#	23507
#	47472
#	74805
#	101865
#	125379
#	149002
#	174160
#	192221
#	210120
#	227712
#
# Disc length: 3341 seconds
#
# Revision: 11
# Processed by: cddbd v1.5.2PL0 Copyright (c) Steve Scherf et al.
# Submitted via: EasyCDDAExtractor 11.0.0.1
#
DISCID=940d0b0b
DTITLE=Ария - Штиль
DYEAR=2002
DGENRE=Heavy Metal
TTITLE0=Штиль
TTITLE1=Пробил час
TTITLE2=Небо тебя найдет
TTITLE3=Ангельская пыль
TTITLE4=Свобода
TTITLE5=Герой асфальта
TTITLE6=Потеряный рай
TTITLE7=You'd better believe me
TTITLE8=Беспечный ангел
TTITLE9=Машина смерти
TTITLE10=Дай руку мне
EXTD=YEAR: 2002
EXTT0=
EXTT1=
EXTT2=
EXTT3=
EXTT4=
EXTT5=
EXTT6=
EXTT7=
EXTT8=
EXTT9=
EXTT10=
PLAYORDER=
